<svg width="26" height="26" viewBox="0 0 26 26" xmlns="http://www.w3.org/2000/svg" xmlns:xlink="http://www.w3.org/1999/xlink"><defs><path id="a" d="M0 .395h25.414V25.81H0z"/></defs><g fill="none" fill-rule="evenodd"><mask id="b" fill="#fff"><use xlink:href="#a"/></mask><path d="M16.942 13.102a4.243 4.243 0 0 1-4.235 4.236 4.244 4.244 0 0 1-4.236-4.236 4.244 4.244 0 0 1 4.236-4.235 4.243 4.243 0 0 1 4.235 4.235m2.283 0a6.51 6.51 0 0 0-6.518-6.518 6.51 6.51 0 0 0-6.518 6.518 6.51 6.51 0 0 0 6.518 6.519 6.51 6.51 0 0 0 6.518-6.519m1.787-6.783c0-.843-.678-1.522-1.522-1.522s-1.522.679-1.522 1.522c0 .844.678 1.523 1.522 1.523s1.522-.679 1.522-1.523m-8.305-3.64c1.853 0 5.824-.148 7.495.514a4.048 4.048 0 0 1 1.455.96c.447.446.728.875.96 1.455.661 1.671.512 5.641.512 7.494 0 1.853.15 5.824-.512 7.494a4.057 4.057 0 0 1-.96 1.456 4.048 4.048 0 0 1-1.455.96c-1.671.662-5.642.513-7.495.513-1.853 0-5.823.149-7.494-.513a4.051 4.051 0 0 1-1.456-.96 4.044 4.044 0 0 1-.96-1.456c-.662-1.67-.513-5.64-.513-7.494 0-1.853-.149-5.823.513-7.494.232-.58.513-1.01.96-1.456a4.051 4.051 0 0 1 1.456-.96c1.67-.661 5.64-.512 7.494-.512m12.706 10.422c0-1.753.017-3.49-.083-5.244-.099-2.035-.563-3.838-2.052-5.327C21.79 1.04 19.986.578 17.951.479c-1.753-.1-3.49-.083-5.244-.083-1.753 0-3.491-.016-5.244.083-2.035.1-3.839.563-5.328 2.052C.646 4.02.183 5.823.084 7.858-.016 9.611 0 11.35 0 13.102c0 1.754-.017 3.491.083 5.245.1 2.035.562 3.838 2.051 5.327 1.49 1.489 3.293 1.953 5.328 2.051 1.753.1 3.49.084 5.244.084 1.754 0 3.49.016 5.244-.084 2.035-.098 3.839-.562 5.327-2.051 1.49-1.489 1.953-3.292 2.052-5.327.1-1.754.083-3.491.083-5.245" fill="currentColor" mask="url(#b)"/></g></svg>