<svg width="31" height="30" viewBox="0 0 31 30" xmlns="http://www.w3.org/2000/svg"><path d="M0 30h7V10H0v20zM3.521 0C1.392 0 0 1.511 0 3.499 0 5.443 1.352 7 3.439 7h.041C5.65 7 7 5.443 7 3.499 6.96 1.51 5.65 0 3.521 0zM31 18.235V30h-6.55V19.023c0-2.758-.948-4.64-3.319-4.64-1.81 0-2.887 1.269-3.361 2.495-.173.44-.217 1.05-.217 1.663V30H11s.088-18.592 0-20.518h6.552v2.908l-.043.067h.043v-.067c.87-1.396 2.425-3.39 5.905-3.39C27.768 9 31 11.933 31 18.235z" fill="currentColor" fill-rule="evenodd"/></svg>