<svg width="26" height="22" viewBox="0 0 26 22" xmlns="http://www.w3.org/2000/svg"><path d="M26.074 2.515c-.96.413-2.002.712-3.078.827a5.328 5.328 0 0 0 2.35-2.944 10.539 10.539 0 0 1-3.392 1.29A5.33 5.33 0 0 0 18.05 0a5.342 5.342 0 0 0-5.344 5.344c0 .414.05.828.133 1.224A15.19 15.19 0 0 1 1.82.977a5.306 5.306 0 0 0-.728 2.696 5.34 5.34 0 0 0 2.382 4.45 5.38 5.38 0 0 1-2.415-.677v.065a5.344 5.344 0 0 0 4.285 5.245 5.632 5.632 0 0 1-1.406.182 6.77 6.77 0 0 1-1.01-.083 5.353 5.353 0 0 0 4.997 3.706 10.7 10.7 0 0 1-6.635 2.283c-.446 0-.86-.016-1.29-.066a15.103 15.103 0 0 0 8.206 2.4c9.828 0 15.204-8.14 15.204-15.205 0-.232 0-.464-.016-.695a11.492 11.492 0 0 0 2.68-2.763" fill="currentColor" fill-rule="evenodd"/></svg>